<svg width="25" height="23" xmlns="http://www.w3.org/2000/svg" xmlns:xlink="http://www.w3.org/1999/xlink" overflow="hidden"><defs><clipPath id="clip0"><rect x="440" y="344" width="25" height="23"/></clipPath></defs><g clip-path="url(#clip0)" transform="translate(-440 -344)"><path d="M23.7698 11.7092C23.7698 18.1761 18.4487 23.4185 11.8849 23.4185 5.32104 23.4185 2.97781e-07 18.1761 2.97781e-07 11.7092 2.97781e-07 5.24241 5.32104-1.73332e-15 11.8849 0 18.4487-1.73332e-15 23.7698 5.24241 23.7698 11.7092Z" fill="#FF0000" transform="matrix(1.02667 0 0 1 440 344)"/><path d="M19.0158 11.7092C19.0158 15.5893 15.8232 18.7348 11.8849 18.7348 7.94658 18.7348 4.75395 15.5893 4.75395 11.7092 4.75395 7.82914 7.94658 4.6837 11.8849 4.6837 15.8232 4.6837 19.0158 7.82914 19.0158 11.7092Z" stroke="#FFFFFF" stroke-width="1.17092" fill="#FF0000" transform="matrix(1.02667 0 0 1 440 344)"/><path d="M9.50791 15.1684 15.6816 11.7102 9.50791 8.25014 9.50791 15.1684ZM36.526 9.40838C35.961 12.1923 35.5317 15.5909 35.3063 16.994L35.1472 16.994C34.9648 15.5479 34.5354 12.1718 33.95 9.4318L32.5029 2.61214 28.0924 2.61214 28.0924 21.0054 30.8275 21.0054 30.8275 5.84194 31.0978 7.25778 33.8787 21.0025 36.6148 21.0025 39.3499 7.25778 39.6426 5.83413 39.6426 21.0044 42.3787 21.0044 42.3787 2.61116 37.9262 2.61116 36.526 9.40838ZM49.774 18.243C49.5243 18.7475 48.9837 19.0978 48.4392 19.0978 47.8069 19.0978 47.5571 18.6157 47.5571 17.4331L47.5571 7.56612 44.4366 7.56612 44.4366 17.6068C44.4366 20.0853 45.2718 21.223 47.1278 21.223 48.3924 21.223 49.4091 20.6746 50.1117 19.3603L50.18 19.3603 50.4503 21.0035 52.8916 21.0035 52.8916 7.5671 49.7711 7.5671 49.7711 18.242 49.774 18.242ZM58.9287 12.8704C57.911 12.1464 57.2787 11.6644 57.2787 10.6125 57.2787 9.86797 57.6397 9.45131 58.4984 9.45131 59.3815 9.45131 59.6752 10.0417 59.6957 12.0605L62.3195 11.9522C62.5225 8.68728 61.414 7.32706 58.5433 7.32706 55.8765 7.32706 54.5641 8.48823 54.5641 10.8769 54.5641 13.047 55.6501 14.0335 57.4134 15.3284 58.9287 16.4691 59.8108 17.1043 59.8108 18.0254 59.8108 18.728 59.3581 19.209 58.5667 19.209 57.6397 19.209 57.0962 18.3533 57.2348 16.8623L54.5904 16.9052C54.1816 19.6881 55.3379 21.3108 58.4106 21.3108 61.1018 21.3108 62.5039 20.1048 62.5039 17.6946 62.501 15.5021 61.3721 14.6239 58.9287 12.8704ZM67.2033 7.56612 64.2184 7.56612 64.2184 21.0025 67.2042 21.0025 67.2042 7.5671ZM65.7328 2.25988C64.5814 2.25988 64.0369 2.67654 64.0369 4.12458 64.0369 5.61556 64.5775 5.98733 65.7337 5.98733 66.9095 5.98733 67.4296 5.61361 67.4296 4.12458 67.4296 2.74484 66.9095 2.25988 65.7328 2.25988ZM77.24 16.1588 74.505 16.027C74.505 18.3942 74.2347 19.1612 73.3086 19.1612 72.3817 19.1612 72.2226 18.3055 72.2226 15.5216L72.2226 12.9163C72.2226 10.2183 72.4051 9.36544 73.3321 9.36544 74.1907 9.36544 74.4171 10.1753 74.4171 12.6762L77.1278 12.5025C77.3103 10.4203 77.0371 8.99465 76.2018 8.18476 75.59 7.59149 74.664 7.3095 73.376 7.3095 70.3472 7.3095 69.1031 8.88829 69.1031 13.3144L69.1031 15.1996C69.1031 19.7593 70.1647 21.2279 73.2638 21.2279 74.5752 21.2279 75.4788 20.9644 76.0896 20.3946 76.9697 19.6003 77.3083 18.243 77.241 16.1588Z" fill="#FFFFFF" transform="matrix(1.02667 0 0 1 440 344)"/></g></svg>